<svg width="12" height="12" viewBox="0 0 12 12" fill="none" xmlns="http://www.w3.org/2000/svg">
<path d="M6.00005 11C5.37505 11 4.78972 10.8814 4.24405 10.644C3.69838 10.4067 3.22338 10.0859 2.81905 9.68155C2.41472 9.27722 2.09388 8.80222 1.85655 8.25655C1.61922 7.71088 1.50038 7.12538 1.50005 6.50005C1.50005 5.87505 1.61888 5.28972 1.85655 4.74405C2.09422 4.19838 2.41488 3.72338 2.81855 3.31905C3.22288 2.91472 3.69788 2.59388 4.24355 2.35655C4.78922 2.11922 5.37472 2.00038 6.00005 2.00005C6.62505 2.00005 7.21055 2.11888 7.75655 2.35655C8.30255 2.59422 8.77755 2.91505 9.18155 3.31905C9.58555 3.72305 9.90638 4.19805 10.144 4.74405C10.3817 5.29005 10.5004 5.87538 10.5 6.50005C10.5 7.12505 10.3814 7.71055 10.144 8.25655C9.90672 8.80255 9.58588 9.27755 9.18155 9.68155C8.77722 10.0855 8.30222 10.4064 7.75655 10.644C7.21088 10.8817 6.62538 11.0004 6.00005 11ZM7.40005 8.60005L8.10005 7.90005L6.50005 6.30005V4.00005H5.50005V6.70005L7.40005 8.60005ZM2.80005 1.17505L3.50005 1.87505L1.37505 4.00005L0.675049 3.30005L2.80005 1.17505ZM9.20005 1.17505L11.325 3.30005L10.625 4.00005L8.50005 1.87505L9.20005 1.17505Z" fill="#232323" fill-opacity="0.5"/>
</svg>
